<svg role="img" viewBox="0 0 24 24" xmlns="http://www.w3.org/2000/svg" id="Mdbook--Streamline-Simple-Icons" height="24" width="24">
  <desc>
    Mdbook Streamline Icon: https://streamlinehq.com
  </desc>
  <title>mdBook</title>
  <path d="M22.77 5.343c0.023 0.337 0 0.613 -0.073 0.817l-4.314 14.227c-0.072 0.252 -0.24 0.445 -0.504 0.6a1.67 1.67 0 0 1 -0.805 0.23H3.772c-1.154 0 -1.839 -0.337 -2.079 -1.01 -0.096 -0.264 -0.096 -0.469 0.012 -0.625 0.108 -0.144 0.288 -0.216 0.553 -0.216h12.52c0.89 0 1.514 -0.168 1.85 -0.493 0.337 -0.324 0.686 -1.07 1.034 -2.21l3.954 -13.05c0.216 -0.71 0.12 -1.334 -0.265 -1.875 -0.384 -0.54 -0.937 -0.817 -1.646 -0.817H8.735c-0.12 0 -0.373 0.048 -0.734 0.132l0.012 -0.048A2.458 2.458 0 0 0 7.33 0.933a0.979 0.979 0 0 0 -0.517 0.168 1.794 1.794 0 0 0 -0.385 0.337c-0.096 0.12 -0.18 0.264 -0.276 0.456a5.76 5.76 0 0 0 -0.228 0.517 7.95 7.95 0 0 1 -0.217 0.505c-0.084 0.18 -0.156 0.324 -0.24 0.444 -0.06 0.073 -0.144 0.18 -0.24 0.3 -0.096 0.121 -0.193 0.241 -0.265 0.337a0.776 0.776 0 0 0 -0.132 0.265c-0.024 0.084 -0.012 0.216 0.024 0.384 0.036 0.168 0.048 0.289 0.048 0.373 -0.036 0.36 -0.168 0.829 -0.396 1.394 -0.229 0.564 -0.433 0.973 -0.613 1.213a5.201 5.201 0 0 1 -0.312 0.325c-0.169 0.168 -0.277 0.312 -0.313 0.444 -0.036 0.048 -0.036 0.18 -0.012 0.409 0.036 0.216 0.048 0.372 0.036 0.456 -0.036 0.325 -0.156 0.757 -0.36 1.298a9.47 9.47 0 0 1 -0.601 1.322c-0.024 0.06 -0.108 0.168 -0.24 0.336 -0.133 0.168 -0.217 0.3 -0.24 0.409 -0.025 0.072 -0.013 0.216 0.011 0.408 0.024 0.193 0.024 0.337 -0.012 0.433 -0.072 0.36 -0.216 0.805 -0.432 1.322 -0.217 0.516 -0.433 0.949 -0.65 1.321 -0.06 0.097 -0.131 0.205 -0.24 0.337 -0.096 0.132 -0.18 0.24 -0.24 0.336a0.927 0.927 0 0 0 -0.12 0.3 0.53 0.53 0 0 0 0.048 0.277c0.036 0.132 0.048 0.228 0.048 0.313 -0.012 0.132 -0.024 0.312 -0.06 0.528 -0.024 0.216 -0.048 0.349 -0.048 0.385 -0.216 0.576 -0.204 1.19 0.024 1.826 0.264 0.745 0.745 1.382 1.43 1.899 0.685 0.516 1.406 0.769 2.139 0.769H17.05c0.625 0 1.214 -0.205 1.767 -0.625 0.553 -0.42 0.925 -0.937 1.105 -1.55l3.966 -13.05c0.216 -0.696 0.12 -1.31 -0.265 -1.862 -0.204 -0.3 -0.48 -0.505 -0.853 -0.649ZM7.16 15.677l1.707 -5.143h1.297c0.457 0 3.46 -0.204 3.052 2.103 -0.408 2.307 -2.259 3.028 -4.422 3.052 -2.162 0.024 -1.634 -0.012 -1.634 -0.012zm2.283 -0.721c0.565 -0.012 2.271 -0.349 2.656 -2.055 0.384 -1.706 -1.382 -1.61 -1.382 -1.61h-1.07l-1.225 3.665c0.012 0.012 0.469 0.012 1.021 0zm-0.396 -5.78 1.646 -5.107h1.178l0.096 4.086 2.835 -4.086h1.19l-1.634 5.107h-0.853l1.502 -4.253 -2.944 4.253h-0.817l-0.096 -4.205 -1.298 4.205z" fill="#000000" stroke-width="1"></path>
</svg>